<?xml version="1.0" encoding="UTF-8"?>
<svg width="800" height="500" viewBox="0 0 800 500" fill="none" xmlns="http://www.w3.org/2000/svg">
  <!-- Background Grid -->
  <defs>
    <pattern id="grid" width="40" height="40" patternUnits="userSpaceOnUse">
      <path d="M 40 0 L 0 0 0 40" fill="none" stroke="#E5E7EB" stroke-width="0.5" opacity="0.3"/>
    </pattern>
  </defs>
  <rect width="800" height="500" fill="url(#grid)"/>
  
  <!-- AI Brain Visualization -->
  <g transform="translate(400, 250)">
    <!-- Neural Network Nodes -->
    <circle cx="-150" cy="-100" r="8" fill="#3B82F6" opacity="0.8"/>
    <circle cx="-50" cy="-100" r="8" fill="#3B82F6" opacity="0.8"/>
    <circle cx="50" cy="-100" r="8" fill="#3B82F6" opacity="0.8"/>
    <circle cx="150" cy="-100" r="8" fill="#3B82F6" opacity="0.8"/>
    
    <circle cx="-100" cy="0" r="8" fill="#3B82F6" opacity="0.8"/>
    <circle cx="0" cy="0" r="8" fill="#3B82F6" opacity="0.8"/>
    <circle cx="100" cy="0" r="8" fill="#3B82F6" opacity="0.8"/>
    
    <circle cx="-50" cy="100" r="8" fill="#3B82F6" opacity="0.8"/>
    <circle cx="50" cy="100" r="8" fill="#3B82F6" opacity="0.8"/>
    
    <!-- Neural Network Connections -->
    <g stroke="#3B82F6" stroke-width="2" opacity="0.4">
      <!-- Input to Hidden Layer -->
      <line x1="-150" y1="-100" x2="-100" y2="0"/>
      <line x1="-150" y1="-100" x2="0" y2="0"/>
      <line x1="-50" y1="-100" x2="-100" y2="0"/>
      <line x1="-50" y1="-100" x2="0" y2="0"/>
      <line x1="50" y1="-100" x2="0" y2="0"/>
      <line x1="50" y1="-100" x2="100" y2="0"/>
      <line x1="150" y1="-100" x2="100" y2="0"/>
      <line x1="150" y1="-100" x2="0" y2="0"/>
      
      <!-- Hidden to Output Layer -->
      <line x1="-100" y1="0" x2="-50" y2="100"/>
      <line x1="-100" y1="0" x2="50" y2="100"/>
      <line x1="0" y1="0" x2="-50" y2="100"/>
      <line x1="0" y1="0" x2="50" y2="100"/>
      <line x1="100" y1="0" x2="-50" y2="100"/>
      <line x1="100" y1="0" x2="50" y2="100"/>
    </g>
    
    <!-- Data Points -->
    <g>
      <circle cx="-180" cy="-150" r="4" fill="#10B981"/>
      <circle cx="-120" cy="-180" r="4" fill="#10B981"/>
      <circle cx="-60" cy="-160" r="4" fill="#10B981"/>
      <circle cx="0" cy="-170" r="4" fill="#10B981"/>
      <circle cx="60" cy="-150" r="4" fill="#10B981"/>
      <circle cx="120" cy="-180" r="4" fill="#10B981"/>
      <circle cx="180" cy="-160" r="4" fill="#10B981"/>
    </g>
    
    <!-- Ship Silhouette -->
    <path d="M-200 120 L-180 120 L-160 100 L-140 100 L-120 120 L-100 120 L-80 100 L-60 100 L-40 120 L-20 120 L0 100 L20 100 L40 120 L60 120 L80 100 L100 100 L120 120 L140 120 L160 100 L180 100 L200 120 L200 140 L-200 140 Z" 
          fill="#1E40AF" opacity="0.1"/>
    
    <!-- Decorative Elements -->
    <circle cx="-200" cy="-200" r="30" fill="#3B82F6" opacity="0.1"/>
    <circle cx="200" cy="-200" r="20" fill="#3B82F6" opacity="0.1"/>
    <circle cx="-200" cy="200" r="25" fill="#3B82F6" opacity="0.1"/>
    <circle cx="200" cy="200" r="35" fill="#3B82F6" opacity="0.1"/>
  </g>
  
  <!-- Animated Pulse Effect -->
  <circle cx="400" cy="250" r="200" fill="none" stroke="#3B82F6" stroke-width="2" opacity="0.1">
    <animate attributeName="r" values="200;220;200" dur="3s" repeatCount="indefinite"/>
    <animate attributeName="opacity" values="0.1;0.2;0.1" dur="3s" repeatCount="indefinite"/>
  </circle>
</svg> 